<?xml version="1.0" encoding="utf-8"?>
<svg version="1.1" xmlns:xlink="http://www.w3.org/1999/xlink" width="24px" height="25px" xmlns="http://www.w3.org/2000/svg">
  <g transform="matrix(1 0 0 1 -1102 -10 )">
    <path d="M 8.573863636363637 20.686848958333336  C 8.676136363636363 20.589192708333336  8.727272727272727 20.46440972222222  9 20.3125  L 9 8.854166666666666  C 8.727272727272727 8.702256944444445  8.676136363636363 8.577473958333334  8.573863636363637 8.479817708333334  C 8.471590909090908 8.382161458333334  8.340909090909092 8.333333333333334  8.181818181818182 8.333333333333334  L 7.090909090909092 8.333333333333334  C 6.931818181818183 8.333333333333334  6.801136363636365 8.382161458333334  6.698863636363637 8.479817708333334  C 6.596590909090908 8.577473958333334  6.545454545454545 8.702256944444445  7 8.854166666666666  L 7 20.3125  C 6.545454545454545 20.46440972222222  6.596590909090908 20.589192708333336  6.698863636363637 20.686848958333336  C 6.801136363636365 20.784505208333336  6.931818181818183 20.833333333333336  7.090909090909092 20.833333333333336  L 8.181818181818182 20.833333333333336  C 8.340909090909092 20.833333333333336  8.471590909090908 20.784505208333336  8.573863636363637 20.686848958333336  Z M 12.9375 20.686848958333336  C 13.039772727272727 20.589192708333336  13.09090909090909 20.46440972222222  13 20.3125  L 13 8.854166666666666  C 13.09090909090909 8.702256944444445  13.039772727272727 8.577473958333334  12.9375 8.479817708333334  C 12.835227272727273 8.382161458333334  12.704545454545457 8.333333333333334  12.545454545454545 8.333333333333334  L 11.454545454545455 8.333333333333334  C 11.295454545454547 8.333333333333334  11.164772727272727 8.382161458333334  11.0625 8.479817708333334  C 10.960227272727273 8.577473958333334  10.909090909090908 8.702256944444445  11 8.854166666666666  L 11 20.3125  C 10.909090909090908 20.46440972222222  10.960227272727273 20.589192708333336  11.0625 20.686848958333336  C 11.164772727272727 20.784505208333336  11.295454545454547 20.833333333333336  11.454545454545455 20.833333333333336  L 12.545454545454545 20.833333333333336  C 12.704545454545457 20.833333333333336  12.835227272727273 20.784505208333336  12.9375 20.686848958333336  Z M 17.301136363636363 20.686848958333336  C 17.40340909090909 20.589192708333336  17.454545454545453 20.46440972222222  17 20.3125  L 17 8.854166666666666  C 17.454545454545453 8.702256944444445  17.40340909090909 8.577473958333334  17.301136363636363 8.479817708333334  C 17.198863636363637 8.382161458333334  17.06818181818182 8.333333333333334  16.90909090909091 8.333333333333334  L 15.818181818181817 8.333333333333334  C 15.65909090909091 8.333333333333334  15.52840909090909 8.382161458333334  15.426136363636363 8.479817708333334  C 15.323863636363637 8.577473958333334  15.272727272727273 8.702256944444445  15 8.854166666666666  L 15 20.3125  C 15.272727272727273 20.46440972222222  15.323863636363637 20.589192708333336  15.426136363636363 20.686848958333336  C 15.52840909090909 20.784505208333336  15.65909090909091 20.833333333333336  15.818181818181817 20.833333333333336  L 16.90909090909091 20.833333333333336  C 17.06818181818182 20.833333333333336  17.198863636363637 20.784505208333336  17.301136363636363 20.686848958333336  Z M 9.017045454545455 2.2623697916666656  L 8.181818181818182 4.166666666666666  L 15.818181818181817 4.166666666666666  L 15 2.2623697916666656  C 14.920454545454549 2.1647135416666656  14.823863636363637 2.105034722222221  14.710227272727273 2.0833333333333344  L 9.306818181818182 2.0833333333333344  C 9.193181818181818 2.105034722222221  9.09659090909091 2.1647135416666656  9.017045454545455 2.2623697916666656  Z M 23.84659090909091 4.313151041666666  C 23.948863636363637 4.410807291666666  24 4.535590277777776  24 4.6875  L 24 5.729166666666666  C 24 5.881076388888887  23.948863636363637 6.005859375  23.84659090909091 6.103515625  C 23.744318181818183 6.201171875  23.613636363636367 6.25  23.454545454545453 6.25  L 21.818181818181817 6.25  L 21.818181818181817 21.6796875  C 21.818181818181817 22.580295138888886  21.551136363636367 23.35883246527778  21.017045454545453 24.015299479166664  C 20.482954545454547 24.671766493055554  19.84090909090909 25  19.09090909090909 25  L 4.909090909090909 25  C 4.159090909090909 25  3.517045454545455 24.6826171875  2.9829545454545454 24.0478515625  C 2.4488636363636367 23.4130859375  2.1818181818181817 22.645399305555554  2.1818181818181817 21.744791666666664  L 2.1818181818181817 6.25  L 0.5454545454545454 6.25  C 0.38636363636363635 6.25  0.25568181818181823 6.201171875  0.1534090909090909 6.103515625  C 0.05113636363636363 6.005859375  0 5.881076388888887  0 5.729166666666666  L 0 4.6875  C 0 4.535590277777776  0.05113636363636363 4.410807291666666  0.1534090909090909 4.313151041666666  C 0.25568181818181823 4.215494791666666  0.38636363636363635 4.166666666666666  0.5454545454545454 4.166666666666666  L 5.8125 4.166666666666666  L 7.005681818181818 1.4485677083333344  C 7.176136363636365 1.0470920138888866  7.482954545454547 0.7052951388888867  7.926136363636363 0.42317708333333426  C 8.369318181818183 0.14105902777777624  8.818181818181818 0  9.272727272727273 0  L 14.727272727272727 0  C 15.181818181818183 0  15.630681818181817 0.14105902777777624  16.073863636363637 0.42317708333333426  C 16.517045454545453 0.7052951388888867  16.823863636363637 1.0470920138888866  16.994318181818183 1.4485677083333344  L 18.1875 4.166666666666666  L 23.454545454545453 4.166666666666666  C 23.613636363636367 4.166666666666666  23.744318181818183 4.215494791666666  23.84659090909091 4.313151041666666  Z " fill-rule="nonzero" fill="#000000" stroke="none" transform="matrix(1 0 0 1 1102 10 )" />
  </g>
</svg>