<?xml version="1.0" encoding="utf-8"?>
<svg version="1.1" xmlns:xlink="http://www.w3.org/1999/xlink" width="24px" height="24px" xmlns="http://www.w3.org/2000/svg">
  <g transform="matrix(1 0 0 1 -1151 -11 )">
    <path d="M 4.0554455445544555 21.97227722772277  L 5.75049504950495 21.97227722772277  L 7.192079207920792 20.53069306930693  L 3.469306930693069 16.80792079207921  L 2.0277227722772277 18.24950495049505  L 2.0277227722772277 19.944554455445545  L 4.0554455445544555 19.944554455445545  L 4.0554455445544555 21.97227722772277  Z M 13.924752475247523 7.54059405940594  C 13.9986798679868 7.466666666666667  14.035643564356437 7.376897689768976  14.035643564356437 7.271287128712872  C 14.035643564356437 7.038943894389439  13.919471947194719 6.922772277227722  13.687128712871285 6.922772277227722  C 13.581518151815182 6.922772277227722  13.491749174917494 6.9597359735973585  13.417821782178219 7.033663366336635  L 4.8316831683168315 15.619801980198021  C 4.757755775577558 15.693729372937291  4.7207920792079205 15.78349834983498  4.7207920792079205 15.889108910891089  C 4.7207920792079205 16.12145214521452  4.836963696369637 16.237623762376238  5.069306930693069 16.237623762376238  C 5.174917491749175 16.237623762376238  5.264686468646865 16.2006600660066  5.338613861386138 16.126732673267327  L 13.924752475247523 7.54059405940594  Z M 0 17.40990099009901  L 13.180198019801981 4.229702970297031  L 19.77029702970297 10.819801980198019  L 6.590099009900991 24  L 0 24  L 0 17.40990099009901  Z M 23.413861386138613 4.308910891089108  C 23.804620462046206 4.720792079207921  24 5.201320132013201  24 5.75049504950495  C 24 6.31023102310231  23.804620462046206 6.785478547854783  23.413861386138613 7.176237623762377  L 20.78415841584158 9.805940594059406  L 14.194059405940594 3.215841584158417  L 16.823762376237624 0.6019801980198007  C 17.203960396039605 0.20066006600659847  17.67920792079208 0  18.24950495049505 0  C 18.809240924092414 0  19.28976897689769 0.20066006600659847  19.69108910891089 0.6019801980198007  L 23.413861386138613 4.308910891089108  Z " fill-rule="nonzero" fill="#000000" stroke="none" transform="matrix(1 0 0 1 1151 11 )" />
  </g>
</svg>