<?xml version="1.0" encoding="utf-8"?>
<svg version="1.1" xmlns:xlink="http://www.w3.org/1999/xlink" width="40px" height="40px" xmlns="http://www.w3.org/2000/svg">
  <defs>
    <mask fill="white" id="clip3">
      <path d="M 0 35  L 0 5  C 0 2.1999999999999993  2.2000000000000455 0  5 0  L 35 0  C 37.799999999999955 0  40 2.1999999999999993  40 5  L 40 35  C 40 37.800000000000004  37.799999999999955 40  35 40  L 24.062500000001137 40  L 5 40  C 2.2000000000000455 40  0 37.800000000000004  0 35  Z " fill-rule="evenodd" />
    </mask>
  </defs>
  <g transform="matrix(1 0 0 1 -938 -3 )">
    <path d="M 0 35  L 0 5  C 0 2.1999999999999993  2.2000000000000455 0  5 0  L 35 0  C 37.799999999999955 0  40 2.1999999999999993  40 5  L 40 35  C 40 37.800000000000004  37.799999999999955 40  35 40  L 24.062500000001137 40  L 5 40  C 2.2000000000000455 40  0 37.800000000000004  0 35  Z " fill-rule="nonzero" fill="#ece7e3" stroke="none" fill-opacity="0.8549019607843137" transform="matrix(1 0 0 1 938 3 )" />
    <path d="M 0 35  L 0 5  C 0 2.1999999999999993  2.2000000000000455 0  5 0  L 35 0  C 37.799999999999955 0  40 2.1999999999999993  40 5  L 40 35  C 40 37.800000000000004  37.799999999999955 40  35 40  L 24.062500000001137 40  L 5 40  C 2.2000000000000455 40  0 37.800000000000004  0 35  Z " stroke-width="2" stroke="#797979" fill="none" transform="matrix(1 0 0 1 938 3 )" mask="url(#clip3)" />
  </g>
</svg>