<?xml version="1.0" encoding="utf-8"?>
<svg version="1.1" xmlns:xlink="http://www.w3.org/1999/xlink" width="140px" height="40px" xmlns="http://www.w3.org/2000/svg">
  <defs>
    <mask fill="white" id="clip2">
      <path d="M 0 35  L 0 5  C 0 2.1999999999999997  2.1999999999999997 0  5 0  L 87.08333333333184 0  L 135 0  C 137.8 0  140 2.1999999999999997  140 5  L 140 35  C 140 37.800000000000004  137.8 40  135 40  L 5 40  C 2.1999999999999997 40  0 37.800000000000004  0 35  Z " fill-rule="evenodd" />
    </mask>
  </defs>
  <g transform="matrix(1 0 0 1 -1089 -665 )">
    <path d="M 0 35  L 0 5  C 0 2.1999999999999997  2.1999999999999997 0  5 0  L 87.08333333333184 0  L 135 0  C 137.8 0  140 2.1999999999999997  140 5  L 140 35  C 140 37.800000000000004  137.8 40  135 40  L 5 40  C 2.1999999999999997 40  0 37.800000000000004  0 35  Z " fill-rule="nonzero" fill="#ece7e3" stroke="none" fill-opacity="0.5294117647058824" transform="matrix(1 0 0 1 1089 665 )" />
    <path d="M 0 35  L 0 5  C 0 2.1999999999999997  2.1999999999999997 0  5 0  L 87.08333333333184 0  L 135 0  C 137.8 0  140 2.1999999999999997  140 5  L 140 35  C 140 37.800000000000004  137.8 40  135 40  L 5 40  C 2.1999999999999997 40  0 37.800000000000004  0 35  Z " stroke-width="2" stroke="#797979" fill="none" transform="matrix(1 0 0 1 1089 665 )" mask="url(#clip2)" />
  </g>
</svg>